# xmcd CD database file
#
# Track frame offsets:
#	150
#	25915
#	44573
#	65444
#	97565
#	121689
#	151432
#	174516
#	199565
#	229663
#
# Disc length: 3433 seconds
#
# Revision: 0
# Processed by: cddbd v1.5.2PL0 Copyright (c) Steve Scherf et al.
# Submitted via: CDex 1.51
#
DISCID=720d670a
DTITLE=Jared Gold - Solids and Stripes
DYEAR=2008
DGENRE=Jazz
TTITLE0=Black
TTITLE1=O-o-h Child
TTITLE2=The Nest
TTITLE3=On the Cusp
TTITLE4=Angela (Theme from Taxi)
TTITLE5=Queen's Gambit
TTITLE6=Isn't It Romantic?
TTITLE7=Splat
TTITLE8=It Ain't Necessarily So
TTITLE9=Moonstone
EXTD=YEAR: 2008
EXTT0=
EXTT1=
EXTT2=
EXTT3=
EXTT4=
EXTT5=
EXTT6=
EXTT7=
EXTT8=
EXTT9=
PLAYORDER=
